<svg width="104" height="24" viewBox="0 0 104 24" fill="none" xmlns="http://www.w3.org/2000/svg">
<g clip-path="url(#clip0_1014_43406)">
<path d="M14.6993 10.4584H28.1915C28.628 10.4584 28.981 10.8144 28.981 11.2523V12C28.981 14.3912 28.3534 16.503 27.0982 18.3355C25.8431 20.168 24.1202 21.57 21.9315 22.5424C19.7428 23.5148 17.2649 24 14.4988 24C12.5326 24 10.6655 23.7102 8.89979 23.1284C7.13299 22.5477 5.59382 21.7432 4.28334 20.7151C2.97182 19.6871 1.93074 18.4185 1.15803 16.9105C0.386357 15.4025 0 13.7663 0 12C0 10.2337 0.386357 8.59753 1.15803 7.08953C1.9297 5.58047 2.97182 4.31294 4.28334 3.28485C5.59382 2.25676 7.13299 1.45235 8.89979 0.87162C10.6655 0.29089 12.5326 0 14.4988 0C17.3433 0 19.9371 0.58073 22.2813 1.74324C24.6256 2.90575 26.3861 4.48097 27.564 6.46994L22.7804 7.91179C21.9691 6.87214 20.8278 6.06038 19.3554 5.47335C17.8831 4.88632 16.2635 4.59333 14.4978 4.59333C12.732 4.59333 11.148 4.88422 9.71427 5.46495C8.28162 6.04568 7.12881 6.9068 6.25585 8.04621C5.38394 9.18561 4.94746 10.5046 4.94746 12.0021C4.94746 13.4996 5.38289 14.8175 6.25585 15.958C7.12777 17.0974 8.28057 17.9585 9.71427 18.5392C11.148 19.12 12.7414 19.4109 14.4978 19.4109C16.8086 19.4109 18.825 18.9194 20.5469 17.9365C21.8605 17.1867 22.7961 16.2373 23.3537 15.0906C23.6064 14.5708 23.2086 13.9648 22.6332 13.9648H14.6972V10.4615L14.6993 10.4584Z" fill="#3D993D"/>
<path d="M54.6288 14.4637C54.6288 14.7388 54.6226 14.9908 54.609 15.2198C54.585 15.6356 54.2372 15.9559 53.8227 15.9559H37.0642C37.4422 17.152 38.2107 18.1455 39.3719 18.9394C40.5331 19.7333 41.8519 20.1292 43.3294 20.1292C45.9515 20.1292 47.8509 19.2303 49.0287 17.4314L53.4948 18.7892C52.7284 20.3875 51.4064 21.6551 49.5289 22.5939C47.6514 23.5327 45.5849 24.0011 43.3294 24.0011C41.2849 24.0011 39.4022 23.5957 37.6803 22.7861C35.9584 21.9764 34.5832 20.8391 33.5557 19.3752C32.5282 17.9113 32.0144 16.2909 32.0144 14.5151C32.0144 12.7393 32.5282 11.1211 33.5557 9.66346C34.5832 8.20586 35.9605 7.06856 37.6886 6.25259C39.4158 5.43663 41.2964 5.02917 43.3294 5.02917C45.3625 5.02917 47.2598 5.43768 48.987 6.25259C50.7141 7.06856 52.0872 8.19956 53.1032 9.64666C54.1203 11.0938 54.6278 12.6994 54.6278 14.4647L54.6288 14.4637ZM43.3294 8.89896C41.8957 8.89896 40.6072 9.27386 39.4627 10.0216C38.3183 10.7703 37.5404 11.7207 37.13 12.8706H48.4116C49.0371 12.8706 49.4067 12.1754 49.0736 11.643C48.6643 10.9908 48.1025 10.4364 47.3883 9.97956C46.2605 9.25916 44.9083 8.89896 43.3305 8.89896H43.3294Z" fill="#3D993D"/>
<path d="M72.8241 23.7322V13.6928C72.8241 12.1628 72.3876 10.9971 71.5157 10.199C70.6438 9.39983 69.3573 9.00077 67.6574 9.00077C65.9574 9.00077 64.6824 9.50064 63.633 10.5004C62.5836 11.5001 62.0635 12.6878 62.075 14.0614V23.7322H57.5421V5.29586H61.9748L62.0176 6.12128C62.0531 6.80387 62.855 7.10316 63.3573 6.64215C63.7113 6.3166 64.1008 6.04147 64.5247 5.81568C65.5136 5.29061 66.8575 5.02808 68.5575 5.02808C71.2463 5.02808 73.388 5.72957 74.9814 7.13152C76.5759 8.53346 77.3727 10.4195 77.3727 12.7876V23.7322H72.8231H72.8241Z" fill="#3D993D"/>
<path d="M99.5673 5.29586H104V23.7322H99.5673L99.5287 22.4405C99.5089 21.7663 98.7215 21.4544 98.2193 21.9007C97.7212 22.345 97.1396 22.7262 96.4754 23.0444C95.1472 23.6807 93.5172 24 91.5844 24C89.4396 24 87.5151 23.6093 85.8099 22.827C84.1047 22.0446 82.7629 20.9304 81.7855 19.4833C80.8081 18.0362 80.3195 16.3801 80.3195 14.514C80.3195 12.6479 80.8081 11.0055 81.7855 9.55315C82.7629 8.1008 84.1078 6.98344 85.8183 6.20109C87.5287 5.41873 89.4511 5.02808 91.5844 5.02808C93.5172 5.02808 95.1618 5.34627 96.5172 5.98371C97.1886 6.29875 97.7734 6.67575 98.2725 7.11471C98.7685 7.55052 99.5475 7.17142 99.5548 6.50878L99.5673 5.29691V5.29586ZM91.7514 19.7091C93.773 19.7091 95.4208 19.2208 96.6926 18.242C97.9645 17.2644 98.59 16.0042 98.568 14.4626C98.5461 12.9546 97.9018 11.7196 96.6352 10.7587C95.3686 9.79783 93.7407 9.31687 91.7525 9.31687C89.7643 9.31687 88.0946 9.78103 86.8447 10.7083C85.5948 11.6356 84.9704 12.9042 84.9704 14.513C84.9704 16.1218 85.5927 17.4177 86.8364 18.3345C88.08 19.2512 89.7194 19.7091 91.7525 19.7091H91.7514Z" fill="#3D993D"/>
</g>
<defs>
<clipPath id="clip0_1014_43406">
<rect width="104" height="24" fill="white"/>
</clipPath>
</defs>
</svg>
