<?xml version="1.0" encoding="UTF-8"?><svg id="Layer_2" xmlns="http://www.w3.org/2000/svg" viewBox="0 0 1014.47 160"><defs><style>.cls-1{fill:#fff;}</style></defs><g id="Layer_1-2"><g><path class="cls-1" d="M188.09,65.4c-.17-.37-.34-.74-.54-1.09-1.8-3.13-3.6-6.26-5.4-9.4-2.17-3.77-4.33-7.55-6.5-11.32-1.69-2.94-3.38-5.88-5.08-8.82-.11-.19-.62-1.07-.77-1.32-.57-.99-1.14-1.98-1.71-2.97-2.84-4.88-5.69-9.75-8.53-14.63-.65-1.12-1.32-2.22-2.06-3.28-.1-.15-.94-1.26-1.25-1.66-1.63-2.1-3.54-3.93-5.69-5.49-3.02-2.18-6.37-3.63-9.98-4.49-.1-.02-1.04-.2-1.4-.27-2.03-.42-4.09-.56-6.15-.6-3.13-.06-6.26-.04-9.4-.06-.37,0-1.76,0-2.09,0-3.99,0-7.99,0-11.98,.01-.33,0-1.64,.01-1.97,.01-3.44,0-6.88-.01-10.32-.02-.29,0-1.46,0-1.75,0-1.8,0-3.6,.03-5.39,.17-2.06,.16-4.08,.49-6.08,.98-.1,.02-.73,.21-.93,.27-.81,.26-1.62,.52-2.41,.82-3.27,1.27-6.18,3.13-8.75,5.52-.21,.2-1.44,1.45-1.83,1.89-1.45,1.63-2.7,3.41-3.81,5.29-4.1,7-8.21,13.99-12.3,21-4.31,7.39-8.6,14.79-12.89,22.19-.11,.19-.24,.38-.3,.59-.06,.17-.06,.36-.04,.54,.05,.39,.37,.53,.62,.44,.24-.08,.49-.15,.74-.23,2.04-.64,4.08-1.28,6.12-1.91,3.98-1.23,7.89-2.64,11.69-4.39,4.06-1.87,7.96-4.03,11.67-6.51,.15-.1,.87-.58,1.08-.73,1.88-1.29,3.69-2.65,5.46-4.09,1.85-1.51,3.7-3.01,5.55-4.52,.11-.09,.61-.5,.76-.61,.53-.4,1.05-.81,1.58-1.21,3.02-2.3,6.17-4.39,9.54-6.14,.29-.15,1.67-.82,2.07-1,3.4-1.54,6.92-2.69,10.64-3.17,.1-.01,1.56-.15,2.18-.23,.77-.1,1.55-.12,2.32-.12,1.51,0,3.02,.01,4.53,.15,1.44,.13,2.85,.37,4.24,.77,.25,.07,1.06,.36,1.23,.42,1.07,.4,2.11,.87,3.13,1.39,2.88,1.47,5.43,3.41,7.73,5.67,1.9,1.86,3.57,3.93,5.04,6.15,.31,.46,1.41,2.28,1.66,2.73,.98,1.78,1.82,3.62,2.61,5.49,1.18,2.79,2.87,5.23,4.98,7.39,1.14,1.17,2.38,2.21,3.68,3.18,1.01,.75,2.07,1.41,3.18,2.01,.42,.22,1.56,.72,1.69,.78,.85,.36,1.72,.65,2.62,.85,1.29,.29,2.6,.5,3.91,.67,.77,.1,1.53,.19,2.3,.29,.95,.12,1.9,.24,2.85,.36,.58,.07,3.43,.43,4.27,.54,1.39,.19,2.77,.38,4.16,.57,.77,.1,1.54,.19,2.3,.3,1.35,.18,2.7,.38,4.05,.56,1.61,.21,3.22,.41,4.82,.61,.04,0,.07,0,.11,0,.13,0,.27-.19,.21-.32Z"/><g><path class="cls-1" d="M186.31,75.22c-1.73-.38-3.45-.76-5.18-1.13-2.99-.64-5.98-1.26-8.97-1.9-2.52-.54-5.04-1.08-7.56-1.62-.29-.06-1.07-.21-1.18-.23-2.06-.38-4.12-.79-6.21-1.01-1.8-.18-3.61-.2-5.4-.08-1.8,.12-3.59,.31-5.37,.63-1.34,.24-4.13,.88-4.2,.89-3.69,.92-7.21,2.26-10.59,3.99-3.19,1.62-6.15,3.59-8.99,5.75-.38,.29-1.76,1.38-2.07,1.63-2,1.63-3.95,3.32-5.84,5.07-1.92,1.77-3.84,3.55-5.76,5.32-1.03,.95-2.08,1.87-3.11,2.81-.38,.35-2.89,2.52-3.12,2.7-1.24,.98-2.46,2-3.72,2.95-4.04,3.07-8.42,5.53-13.22,7.21-.17,.06-.86,.31-1.03,.36-1.26,.39-2.53,.76-3.83,1.05-2.41,.54-4.84,.92-7.31,1.03-.29,.01-.59,.02-.88,.05-1.36,.12-2.72,.11-4.08,0-.44-.03-.88-.01-1.32-.02-.95-.1-1.9-.19-2.85-.29-.92-.1-1.83-.19-2.74-.32-1.28-.18-2.55-.38-3.82-.57-1.53-.23-3.05-.5-4.56-.82-2.31-.48-4.59-1.08-6.84-1.77-.21-.06-1.25-.39-1.56-.49-2.83-.95-5.59-2.04-8.3-3.29-2.84-1.31-5.59-2.79-8.28-4.39-.22-.13-1.09-.65-1.31-.79-4.96-3.09-9.61-6.6-13.91-10.56-4.5-4.13-8.62-8.6-12.2-13.55-.24-.33-.49-.65-.74-.96-.04-.04-.13-.04-.2-.05-.11,.26-.02,.51,.03,.76,.13,.65,.27,1.3,.41,1.95,.4,1.87,.79,3.75,1.26,5.61,1.54,5.98,3.53,11.79,5.92,17.48,2.43,5.79,5.26,11.38,8.46,16.78,1.17,1.97,2.4,3.89,3.61,5.84,.35,.57,.77,1.07,1.29,1.51,2.03,1.72,4.13,3.34,6.31,4.86,.12,.08,.78,.54,1,.68,1.12,.71,2.24,1.43,3.38,2.1,4.34,2.56,8.92,4.56,13.74,6,.14,.04,.84,.25,1.05,.31,2.13,.59,4.29,1.03,6.48,1.36,1.27,.19,2.55,.34,3.83,.51,2.04,.28,4.09,.53,6.15,.66,.22,.01,.44,.06,.66,.07,1.25,.1,4.17,.24,4.39,.24,2.43,.09,4.85-.08,7.28-.2,.04,0,.07,0,.11,0,1.5-.19,3-.32,4.48-.58,1.7-.3,3.39-.64,5.06-1.11,.14-.04,1.05-.29,1.37-.39,2.09-.62,4.12-1.4,6.1-2.3,3.88-1.77,7.45-4.03,10.77-6.69,.2-.16,2.75-2.34,3.05-2.61,2.87-2.65,5.57-5.46,8.14-8.4,2.32-2.66,4.62-5.35,6.92-8.03,.29-.33,3.26-3.67,3.68-4.13,2.14-2.34,4.36-4.6,6.74-6.69,3.06-2.69,6.39-4.97,10.03-6.8,.26-.13,1.32-.62,1.59-.73,.54-.22,1.08-.47,1.62-.68,2.57-1.02,5.21-1.77,7.93-2.25,1.81-.32,3.63-.57,5.47-.63,.29,0,.59-.01,.88-.04,1.5-.14,3.01-.13,4.51-.01,.14,.01,1.17,.04,1.53,.07,.51,.04,1.03,.03,1.55,.09,1.03,.1,2.05,.24,3.07,.35,1.69,.18,3.35,.48,5.02,.81,.47,.09,.94,.2,1.41,.27,.59,.08,1.09-.11,1.47-.58,.14-.17,.26-.36,.39-.54,.56-.82,1.13-1.64,1.69-2.46,1.94-2.83,3.87-5.66,5.8-8.49,.21-.3,.42-.61,.62-.92,.08-.12,.13-.26,.19-.4,.03-.07-.06-.24-.15-.26Z"/><path class="cls-1" d="M170.42,97.12c-.27-.1-.56-.17-.85-.21-.76-.12-1.53-.21-2.3-.31-1.35-.19-2.71-.31-4.07-.35-2.29-.06-4.56,.03-6.83,.38-1.79,.27-3.54,.68-5.27,1.2-.24,.07-1.49,.52-1.86,.66-3.32,1.27-6.36,3.05-9.2,5.17-2.6,1.94-4.97,4.15-7.22,6.48-.07,.08-1.09,1.13-1.52,1.59-1.92,2.05-3.74,4.17-5.56,6.31-2.67,3.15-5.31,6.33-8.08,9.4-2.87,3.18-5.84,6.25-9.09,9.06-.19,.17-1.12,.98-1.42,1.2-1.03,.78-2.03,1.59-3.08,2.34-3.7,2.65-7.67,4.81-11.92,6.44-3.17,1.22-6.42,2.16-9.76,2.75-.21,.04-1.58,.3-2.05,.37-2.3,.34-4.62,.54-6.94,.64-3.43,.15-6.86,.05-10.28-.22-.81-.06-1.62-.14-2.42-.24-1.39-.18-2.78-.38-4.16-.57-1.53-.21-3.06-.5-4.58-.8-2.39-.46-4.76-1.01-7.13-1.57-.29-.07-.58-.11-.87-.15-.07,0-.14,.02-.21,.04-.32,.14-.45,.72-.2,.94,.19,.17,.39,.34,.6,.49,3.29,2.44,6.74,4.66,10.41,6.49,5.05,2.52,10.33,4.31,15.96,4.99,1.47,.18,2.93,.31,4.41,.34,1.51,.04,3.02-.03,4.53-.16,.85-.08,1.69-.16,2.52-.33,.04,0,.07,.02,.11,.01,1.28-.16,2.54-.42,3.8-.71,4.11-.95,8.03-2.44,11.79-4.36,3.52-1.8,6.85-3.9,10.06-6.2,.15-.11,.79-.57,.96-.7,.96-.75,1.92-1.5,2.85-2.27,2.93-2.43,5.57-5.15,7.91-8.16,1.31-1.69,2.63-3.37,3.97-5.04,2.21-2.77,4.6-5.37,7.22-7.76,.19-.17,2.19-1.84,2.33-1.94,.36-.26,.7-.54,1.06-.8,2.24-1.63,4.6-3.05,7.16-4.12,2.85-1.2,5.8-1.9,8.91-1.8,.26,0,.91,.02,.98,.02,1.92,.14,3.78,.56,5.58,1.24,.17,.06,.35,.12,.53,.15,.47,.07,.88-.05,1.18-.43,.23-.29,.44-.59,.65-.9,2.33-3.41,4.65-6.81,6.98-10.22,1.5-2.19,2.99-4.38,4.48-6.57,.16-.24,.32-.49,.45-.76,.12-.25,.07-.52-.1-.73-.11-.14-.26-.28-.42-.34Z"/></g></g><g><polygon class="cls-1" points="294.45 79.24 261.1 25.88 246.09 25.88 246.09 122.1 267.06 122.1 267.06 70.19 287.48 102.99 301.31 102.99 321.87 69.98 321.87 122.1 342.71 122.1 342.71 25.88 327.69 25.88 294.45 79.24"/><path class="cls-1" d="M400.43,59.33c-1.26-.99-2.64-1.88-4.11-2.63-3.82-1.96-8.2-2.95-13.01-2.95-6.09,0-11.66,1.55-16.57,4.6-4.89,3.04-8.77,7.25-11.54,12.5-2.75,5.23-4.15,11.22-4.15,17.8s1.4,12.44,4.15,17.67c2.76,5.25,6.65,9.46,11.54,12.5,4.9,3.05,10.48,4.6,16.57,4.6,4.81,0,9.2-1.02,13.02-3.02,1.47-.77,2.84-1.66,4.1-2.66v4.35h20.18V55.07h-20.18v4.25Zm-28.66,29.19c0-3.11,.64-5.89,1.89-8.28,1.24-2.36,2.98-4.22,5.16-5.53,2.19-1.31,4.77-1.98,7.67-1.98s5.62,.67,7.81,1.98c2.19,1.31,3.92,3.17,5.16,5.53,1.25,2.39,1.89,5.17,1.89,8.28,0,4.73-1.39,8.61-4.12,11.55-2.71,2.9-6.32,4.38-10.74,4.38-2.9,0-5.48-.67-7.67-1.98-2.19-1.31-3.93-3.17-5.16-5.53-1.25-2.38-1.89-5.21-1.89-8.41Z"/><path class="cls-1" d="M477.43,55.38h0c-2.65-1.09-5.65-1.64-8.92-1.64-6.17,0-11.25,1.65-15.13,4.9v-3.57h-20.31V122.1h20.31v-36.9c0-4.35,1.04-7.6,3.09-9.65s4.76-3.09,8.06-3.09c1.58,0,2.99,.23,4.18,.7,1.15,.45,2.15,1.12,2.97,2.01l1.11,1.21,12.8-14.68-.85-.96c-2.18-2.46-4.64-4.26-7.31-5.36Z"/><rect class="cls-1" x="491.26" y="55.07" width="20.44" height="67.03"/><path class="cls-1" d="M501.49,24.82c-3.23,0-5.95,1.13-8.09,3.37-2.12,2.22-3.19,4.93-3.19,8.04s1.08,5.95,3.2,8.12c2.13,2.19,4.85,3.3,8.08,3.3s6.07-1.11,8.16-3.31c2.07-2.18,3.12-4.9,3.12-8.11s-1.05-5.81-3.11-8.03c-2.1-2.25-4.84-3.38-8.17-3.38Z"/><path class="cls-1" d="M574.99,57.49h0c-3.94-2.48-8.44-3.74-13.39-3.74s-9.73,1.13-13.78,3.37c-1.18,.65-2.3,1.39-3.34,2.19v-4.23h-20.31V122.1h20.31v-38.22c0-2.3,.49-4.33,1.47-6.05,.96-1.7,2.31-3.03,4.01-3.95,1.72-.94,3.72-1.41,5.94-1.41,3.38,0,6.16,1.06,8.26,3.16s3.15,4.87,3.15,8.26v38.22h20.31v-42.07c0-4.57-1.13-8.89-3.37-12.86-2.23-3.95-5.35-7.21-9.25-9.67Z"/><path class="cls-1" d="M644.15,59.33c-1.26-.99-2.64-1.88-4.11-2.63-3.82-1.96-8.2-2.95-13.01-2.95-6.09,0-11.66,1.55-16.57,4.6-4.89,3.04-8.77,7.25-11.54,12.5-2.75,5.23-4.15,11.22-4.15,17.8s1.4,12.44,4.15,17.67c2.77,5.25,6.65,9.46,11.54,12.5,4.9,3.05,10.48,4.6,16.57,4.6,4.81,0,9.19-1.02,13.02-3.02,1.47-.77,2.84-1.66,4.1-2.66v4.35h20.18V55.07h-20.18v4.25Zm-28.66,29.19c0-3.11,.64-5.89,1.89-8.28,1.24-2.36,2.98-4.22,5.16-5.53,2.19-1.32,4.77-1.98,7.67-1.98s5.61,.67,7.81,1.98c2.19,1.31,3.92,3.17,5.16,5.53,1.25,2.39,1.89,5.17,1.89,8.28,0,4.73-1.39,8.61-4.12,11.55-2.71,2.9-6.32,4.38-10.74,4.38-2.9,0-5.48-.67-7.67-1.98-2.19-1.31-3.93-3.17-5.16-5.53-1.25-2.38-1.89-5.21-1.89-8.41Z"/><path class="cls-1" d="M745.23,95.12c-2.41,2.74-5.42,4.89-8.96,6.39-3.56,1.51-7.9,2.27-12.9,2.27-4.12,0-7.93-.72-11.31-2.14-3.38-1.42-6.36-3.47-8.86-6.1-2.51-2.63-4.45-5.79-5.79-9.39-1.35-3.62-2.03-7.73-2.03-12.23s.68-8.5,2.03-12.17c1.34-3.64,3.29-6.82,5.79-9.45,2.5-2.62,5.47-4.65,8.85-6.03,3.39-1.38,7.2-2.08,11.33-2.08,4.73,0,8.92,.76,12.43,2.27,3.5,1.5,6.5,3.61,8.91,6.27l1.03,1.14,14.34-14.34-1.06-1.03c-4.44-4.35-9.64-7.82-15.44-10.32-5.82-2.5-12.63-3.77-20.22-3.77-7.06,0-13.67,1.29-19.62,3.83-5.94,2.54-11.22,6.08-15.71,10.52-4.5,4.46-8.01,9.76-10.42,15.76-2.4,5.98-3.62,12.51-3.62,19.39s1.22,13.41,3.62,19.39c2.41,5.99,5.91,11.31,10.41,15.82,4.49,4.49,9.81,8.04,15.8,10.54,5.99,2.5,12.57,3.76,19.54,3.76,7.76,0,14.7-1.24,20.6-3.7,5.9-2.45,11.15-5.95,15.6-10.4l1.03-1.03-14.35-14.35-1.03,1.17Z"/><path class="cls-1" d="M816.53,57.12h0c-3.97-2.24-8.56-3.37-13.66-3.37s-9.69,1.13-13.66,3.37c-1.08,.61-2.1,1.29-3.06,2.03V23.22h-20.31V122.1h20.31v-38.22c0-2.3,.49-4.33,1.47-6.05,.96-1.7,2.31-3.03,4.01-3.95,1.72-.94,3.72-1.41,5.94-1.41,3.38,0,6.16,1.06,8.26,3.16,2.09,2.09,3.15,4.87,3.15,8.26v38.22h20.31v-42.07c0-5.1-1.14-9.68-3.38-13.6-2.25-3.93-5.4-7.06-9.38-9.31Z"/><path class="cls-1" d="M885.47,59.33c-1.26-.99-2.64-1.88-4.11-2.63-3.82-1.96-8.2-2.95-13.01-2.95-6.09,0-11.66,1.55-16.57,4.6-4.89,3.04-8.77,7.25-11.54,12.5-2.75,5.23-4.15,11.22-4.15,17.8s1.4,12.44,4.15,17.67c2.77,5.25,6.65,9.46,11.54,12.5,4.9,3.05,10.48,4.6,16.57,4.6,4.81,0,9.19-1.02,13.02-3.02,1.47-.77,2.84-1.66,4.1-2.66v4.35h20.18V55.07h-20.18v4.25Zm-28.66,29.19c0-3.11,.64-5.89,1.89-8.28,1.24-2.36,2.98-4.22,5.16-5.53,2.19-1.32,4.77-1.98,7.67-1.98s5.61,.67,7.81,1.98c2.19,1.31,3.92,3.17,5.16,5.53,1.25,2.39,1.89,5.17,1.89,8.28,0,4.73-1.39,8.61-4.12,11.55-2.71,2.9-6.32,4.38-10.74,4.38-2.9,0-5.48-.67-7.67-1.98-2.19-1.31-3.93-3.17-5.16-5.53-1.25-2.38-1.89-5.21-1.89-8.41Z"/><path class="cls-1" d="M926.36,24.82c-3.23,0-5.95,1.13-8.09,3.37-2.12,2.22-3.19,4.93-3.19,8.04s1.08,5.95,3.2,8.12c2.13,2.19,4.85,3.3,8.08,3.3s6.07-1.11,8.16-3.31c2.07-2.18,3.12-4.9,3.12-8.11s-1.05-5.81-3.11-8.03c-2.09-2.25-4.84-3.38-8.17-3.38Z"/><rect class="cls-1" x="918.12" y="55.07" width="20.44" height="67.03"/><path class="cls-1" d="M1011.1,67.17h0c-2.23-3.96-5.35-7.21-9.25-9.68-3.94-2.48-8.44-3.74-13.39-3.74s-9.73,1.13-13.78,3.37c-1.18,.65-2.3,1.39-3.34,2.19v-4.23h-20.31V122.1h20.31v-38.22c0-2.3,.49-4.33,1.47-6.05,.96-1.7,2.31-3.03,4.01-3.95,1.72-.94,3.72-1.41,5.94-1.41,3.38,0,6.16,1.06,8.26,3.16s3.15,4.87,3.15,8.26v38.22h20.31v-42.07c0-4.57-1.13-8.89-3.37-12.86Z"/></g></g></svg>